<?xml version="1.0" encoding="UTF-8" standalone="no"?>
<!-- Created with Inkscape (http://www.inkscape.org/) -->

<svg
   width="50"
   height="50"
   viewBox="0 0 13.229166 13.229166"
   version="1.1"
   id="svg185"
   inkscape:version="1.2.2 (732a01da63, 2022-12-09)"
   sodipodi:docname="s09.svg"
   xmlns:inkscape="http://www.inkscape.org/namespaces/inkscape"
   xmlns:sodipodi="http://sodipodi.sourceforge.net/DTD/sodipodi-0.dtd"
   xmlns:xlink="http://www.w3.org/1999/xlink"
   xmlns="http://www.w3.org/2000/svg"
   xmlns:svg="http://www.w3.org/2000/svg">
  <sodipodi:namedview
     id="namedview187"
     pagecolor="#ffffff"
     bordercolor="#000000"
     borderopacity="0.25"
     inkscape:showpageshadow="2"
     inkscape:pageopacity="0.0"
     inkscape:pagecheckerboard="0"
     inkscape:deskcolor="#d1d1d1"
     inkscape:document-units="mm"
     showgrid="false"
     inkscape:zoom="7.9778157"
     inkscape:cx="18.175401"
     inkscape:cy="30.083422"
     inkscape:window-width="2560"
     inkscape:window-height="1387"
     inkscape:window-x="1912"
     inkscape:window-y="-8"
     inkscape:window-maximized="1"
     inkscape:current-layer="layer1"
     showguides="true" />
  <defs
     id="defs182">
    <linearGradient
       id="linearGradient7585"
       inkscape:swatch="solid">
      <stop
         style="stop-color:#7079ce;stop-opacity:1;"
         offset="0"
         id="stop7583" />
    </linearGradient>
    <pattern
       id="EMFhbasepattern"
       patternUnits="userSpaceOnUse"
       width="6"
       height="6"
       x="0"
       y="0" />
    <pattern
       id="EMFhbasepattern-7"
       patternUnits="userSpaceOnUse"
       width="6"
       height="6"
       x="0"
       y="0" />
    <pattern
       id="EMFhbasepattern-5"
       patternUnits="userSpaceOnUse"
       width="6"
       height="6"
       x="0"
       y="0" />
    <pattern
       id="EMFhbasepattern-71"
       patternUnits="userSpaceOnUse"
       width="6"
       height="6"
       x="0"
       y="0" />
    <pattern
       id="EMFhbasepattern-3"
       patternUnits="userSpaceOnUse"
       width="6"
       height="6"
       x="0"
       y="0" />
    <pattern
       id="EMFhbasepattern-1"
       patternUnits="userSpaceOnUse"
       width="6"
       height="6"
       x="0"
       y="0" />
    <pattern
       id="EMFhbasepattern-4"
       patternUnits="userSpaceOnUse"
       width="6"
       height="6"
       x="0"
       y="0" />
    <pattern
       id="EMFhbasepattern-52"
       patternUnits="userSpaceOnUse"
       width="6"
       height="6"
       x="0"
       y="0" />
    <pattern
       id="EMFhbasepattern-6"
       patternUnits="userSpaceOnUse"
       width="6"
       height="6"
       x="0"
       y="0" />
    <pattern
       id="EMFhbasepattern-38"
       patternUnits="userSpaceOnUse"
       width="6"
       height="6"
       x="0"
       y="0" />
    <linearGradient
       inkscape:collect="always"
       xlink:href="#linearGradient7585"
       id="linearGradient7587"
       x1="0.21962484"
       y1="6.6145834"
       x2="13.009542"
       y2="6.6145834"
       gradientUnits="userSpaceOnUse" />
    <pattern
       id="EMFhbasepattern-0"
       patternUnits="userSpaceOnUse"
       width="6"
       height="6"
       x="0"
       y="0" />
    <pattern
       id="EMFhbasepattern-8"
       patternUnits="userSpaceOnUse"
       width="6"
       height="6"
       x="0"
       y="0" />
    <pattern
       id="EMFhbasepattern-57"
       patternUnits="userSpaceOnUse"
       width="6"
       height="6"
       x="0"
       y="0" />
  </defs>
  <g
     inkscape:label="Слой 1"
     inkscape:groupmode="layer"
     id="layer1">
    <path
       id="path425"
       style="fill:url(#linearGradient7587);fill-opacity:1;stroke:none;stroke-width:0.124346;stroke-linecap:round"
       d="M 6.6145833 0.21962484 C 3.08284 0.21969104 0.21969104 3.0828399 0.21962484 6.6145833 C 0.21969114 10.146332 3.08284 13.009476 6.6145833 13.009542 C 10.146332 13.009476 13.009476 10.146332 13.009542 6.6145833 C 13.009476 3.0828399 10.146332 0.21969114 6.6145833 0.21962484 z M 6.6238851 2.9098999 C 7.5301519 2.9098999 8.2599609 3.6428093 8.2599609 4.5490763 C 8.2599609 5.436785 7.5301519 6.1851522 6.6238851 6.1851522 C 5.7238043 6.1851522 4.9785075 5.436785 4.9785075 4.5490763 C 4.9785075 3.6428093 5.7238043 2.9098999 6.6238851 2.9098999 z M 5.8905965 6.8936361 L 7.3628581 6.8936361 C 8.7578282 6.8936361 9.9058553 8.0225507 9.9058553 9.4206136 L 9.9058553 9.7885498 L 9.5343018 9.7885498 L 3.3233114 9.7885498 L 3.3233114 9.4206136 C 3.3233114 8.0225507 4.4801606 6.8936361 5.8905965 6.8936361 z " />
  </g>
</svg>
